<?xml version="1.0" encoding="UTF-8"?>
<svg id="Calque_2" data-name="Calque 2" xmlns="http://www.w3.org/2000/svg" viewBox="0 0 64 64.35">
  <defs>
    <style>
      .cls-1 {
        fill: #e5e5e5;
        stroke-width: 0px;
      }
    </style>
  </defs>
  <g id="Calque_1-2" data-name="Calque 1">
    <g>
      <path class="cls-1" d="m64,19.24c-.05-.36-.51-.51-3.72-1.8-2.39-.96-4.59-1.49-6.41-1.8v.77c-.06.03-.15.07-.26.13-.65.32-2.32,1.08-5.13,1.54-1.98.32-5.95.73-11.16.77h-.25c-5.21-.04-9.18-.45-11.16-.77-2.81-.46-4.48-1.22-5.13-1.54-.11-.05-.2-.1-.26-.13v-.77c-1.83.3-4.03.84-6.41,1.8-3.21,1.29-3.68,1.44-3.72,1.8-.21,1.64,6.63,3.74,7.83,4.11,4.18,1.28,10.39,2.69,18.99,2.69s14.81-1.41,18.98-2.69c1.2-.37,8.03-2.47,7.83-4.11Z"/>
      <path class="cls-1" d="m21.21,44.96l-1.83-1.83c-.65-.65-1.72-.65-2.37,0L.87,59.28c-1.16,1.16-1.16,3.04,0,4.2h0c1.16,1.16,3.04,1.16,4.2,0l16.15-16.15c.65-.65.65-1.72,0-2.37ZM4.75,63.03c-.95.95-2.49.95-3.43,0-.95-.95-.95-2.49,0-3.43l.38-.38c-.95.95-.95,2.49,0,3.43.95.95,2.49.95,3.43,0l-.38.38Z"/>
      <rect class="cls-1" x="19.19" y="40.59" width="6.71" height="2.41" transform="translate(-22.95 28.19) rotate(-45)"/>
      <path class="cls-1" d="m34.94,38.37c-4.26-.89-7.64-4.21-8.62-8.43-.09-.41-.46-.69-.87-.69h0c-.58,0-1.01.54-.88,1.1,1.14,4.91,5.05,8.75,10,9.78.56.12,1.08-.31,1.08-.88h0c0-.42-.3-.79-.71-.88Z"/>
      <path class="cls-1" d="m51.84,25.41c-.3.06-.5.35-.48.65.04.44.06.88.06,1.33,0,7.83-6.35,14.18-14.18,14.18s-14.18-6.35-14.18-14.18c0-.45.02-.89.06-1.33.03-.32-.18-.62-.5-.69-.68-.15-1.33-.3-1.94-.46-.21-.05-.41.09-.44.3-.1.83-.15,1.67-.13,2.53.19,9.38,7.95,16.93,17.32,16.9s17.18-7.75,17.18-17.25c0-.75-.05-1.49-.14-2.21-.03-.21-.23-.35-.44-.3-.7.18-1.43.36-2.22.53Z"/>
      <path class="cls-1" d="m48.98,4.6c-.41.35-.91.68-1.53.91-.32.12-.62.2-.9.26.48-.21,1.22-.62,1.8-1.41.11-.15.25-.33.37-.55-.13-.34-.36-.8-.76-1.25-.35-.39-.73-.66-1.15-.9-.79-.44-1.82-.85-3.59-1.15-1.02-.18-2-.24-3.98-.38-.69-.05-1.38-.09-2.05-.13h0s0,0,0,0c0,0,0,0,0,0h0c-.67.03-1.35.08-2.05.13-1.97.15-2.96.21-3.98.38-1.77.31-2.8.71-3.59,1.15-.43.24-.8.5-1.15.9-.62.69-.82,1.43-.9,1.67-.21.7-.72,1.98-1.48,3.77.52.1,1.15.16,1.87.08.44-.05.83-.15,1.15-.26-.08.1-.17.18-.26.26-.89.76-2.16.72-3.04.57-.52,1.2-1.13,2.59-1.83,4.18.13.04.26.09.38.13,4.16,1.36,9.24,2.44,14.88,2.44s10.71-1.07,14.88-2.44c.13-.04.26-.08.38-.13-1.78-4.01-2.99-6.84-3.47-8.23Z"/>
    </g>
  </g>
</svg>