<?xml version="1.0" encoding="UTF-8"?>
<svg id="Calque_2" data-name="Calque 2" xmlns="http://www.w3.org/2000/svg" viewBox="0 0 128 128"><path class="cls-1" d="m40.58,55.18h-11.49c-4.87,0-8.82,3.95-8.82,8.82v35.28c0,4.87,3.95,8.82,8.82,8.82h11.49v-52.92Z"/><path class="cls-1" d="m98.91,55.18h-25.71l4.41-18.17c.25-1.03.39-2.08.4-3.14.09-7.62-6.01-13.88-13.63-13.97l-15.22,30.39c-1.06,2.13-2.91,3.68-5.1,4.42v53.4h44.57c3.92,0,7.37-2.59,8.47-6.35l10.28-35.28c.23-.8.35-1.63.35-2.47,0-4.87-3.95-8.82-8.82-8.82Z"/></svg>