<?xml version="1.0" encoding="UTF-8"?>
<svg id="Calque_2" data-name="Calque 2" xmlns="http://www.w3.org/2000/svg" viewBox="0 0 55.25 55.72">
      <path class="cls-1" d="m12.83,22.29h-7.26c-3.08,0-5.57,2.49-5.57,5.57v22.29c0,3.08,2.49,5.57,5.57,5.57h7.26V22.29Z"/>
      <path class="cls-1" d="m49.68,22.29h-16.24l2.79-11.48c.16-.65.25-1.31.25-1.98.06-4.82-3.8-8.77-8.61-8.83l-9.61,19.2c-.67,1.34-1.84,2.33-3.22,2.79v33.73h28.15c2.48,0,4.66-1.63,5.35-4.01l6.49-22.29c.15-.51.22-1.03.22-1.56,0-3.08-2.49-5.57-5.57-5.57Z"/>
</svg>